<?xml version="1.0" standalone="no"?>
<!DOCTYPE svg PUBLIC "-//W3C//DTD SVG 20010904//EN"
 "http://www.w3.org/TR/2001/REC-SVG-20010904/DTD/svg10.dtd">
<svg version="1.0" xmlns="http://www.w3.org/2000/svg"
 width="600.000000pt" height="600.000000pt" viewBox="0 0 600.000000 600.000000"
 preserveAspectRatio="xMidYMid meet">
<metadata>
Created by potrace 1.14, written by Peter Selinger 2001-2017
</metadata>
<g transform="translate(0.000000,600.000000) scale(0.100000,-0.100000)"
fill="#000000" stroke="none">
<path d="M4089 5463 c0 -10 -2 -25 -4 -33 -2 -8 -5 -25 -7 -37 -5 -27 -34 -63
-65 -80 -38 -21 -89 -15 -212 27 -137 47 -171 49 -246 15 -43 -19 -81 -26
-168 -31 -95 -6 -123 -12 -192 -40 -68 -29 -89 -43 -128 -90 -26 -31 -47 -64
-47 -75 0 -24 -37 -49 -74 -49 -16 0 -56 5 -88 12 -45 9 -60 17 -64 33 -4 15
-35 31 -131 68 -69 26 -128 46 -130 44 -2 -2 2 -18 8 -36 10 -28 9 -35 -7 -50
-11 -10 -39 -42 -64 -71 -50 -60 -62 -72 -110 -114 -32 -28 -33 -28 -62 -11
-29 17 -31 17 -48 -1 -30 -31 -33 -60 -10 -82 l21 -19 -43 -35 c-27 -22 -67
-75 -105 -140 -35 -58 -76 -120 -91 -138 -42 -47 -92 -154 -92 -195 0 -30 -1
-30 50 -4 36 19 46 20 78 10 78 -24 121 -54 145 -101 19 -40 28 -46 72 -59 28
-7 54 -21 60 -30 9 -15 49 -107 54 -123 1 -4 4 -15 7 -23 4 -8 1 -21 -5 -29
-9 -11 -8 -18 4 -29 8 -9 18 -29 21 -46 5 -21 23 -43 60 -72 30 -23 52 -45 49
-49 -3 -5 0 -12 6 -15 5 -4 8 -13 5 -20 -3 -8 5 -20 17 -28 42 -28 63 -52 59
-69 -2 -9 6 -21 17 -27 10 -6 22 -25 26 -43 4 -18 18 -51 32 -72 25 -38 26
-39 40 -20 11 13 17 15 20 7 3 -9 14 -11 31 -7 30 8 39 14 103 75 72 70 84 79
118 89 37 10 47 -2 54 -70 10 -86 16 -97 56 -107 37 -10 37 -10 33 19 -2 15
-10 28 -17 28 -7 0 -17 28 -24 73 -22 130 -14 119 -79 112 -65 -8 -111 -35
-161 -95 -18 -22 -41 -40 -51 -40 -11 0 -22 -5 -26 -11 -4 -8 -12 -2 -21 15
l-14 27 -20 -23 -20 -23 5 32 c4 26 1 34 -20 48 -20 13 -23 19 -14 30 9 10 1
20 -34 44 -30 21 -43 36 -40 46 4 8 1 15 -5 15 -6 0 -8 6 -5 13 3 9 -17 31
-51 56 -30 23 -55 47 -55 53 0 6 -7 20 -16 29 -9 10 -18 33 -20 51 -2 18 -9
47 -15 63 -59 157 -66 167 -130 188 -48 16 -57 23 -75 60 -16 35 -30 47 -84
74 -55 27 -88 37 -132 42 -18 2 -5 33 37 90 25 33 71 104 102 157 40 66 71
106 100 127 31 21 44 40 49 63 4 22 14 36 29 41 30 11 108 82 182 168 84 98
96 103 172 74 42 -16 62 -30 65 -45 11 -41 212 -68 268 -35 16 8 35 33 44 56
25 65 72 109 151 143 61 26 89 31 183 36 89 5 121 10 166 31 79 36 98 34 269
-29 84 -31 148 -35 194 -12 38 20 91 71 91 89 1 12 24 -12 66 -69 12 -16 51
-66 87 -112 36 -46 80 -104 98 -130 21 -30 124 -121 291 -257 142 -115 270
-220 285 -232 23 -19 27 -31 33 -105 l7 -83 -41 -77 c-38 -72 -43 -77 -79 -83
-90 -16 -237 -82 -237 -108 0 -7 9 -51 20 -99 13 -60 21 -148 26 -285 3 -109
7 -220 8 -246 2 -27 -2 -68 -7 -92 -8 -36 -7 -46 9 -67 l19 -25 17 71 c9 40
15 95 13 126 -2 30 -7 140 -10 244 -3 103 -12 220 -20 258 -22 103 -21 106 29
128 40 17 122 41 189 55 15 3 27 10 27 15 0 5 20 46 44 90 48 86 46 68 32 233
-4 42 -10 57 -33 76 -15 13 -42 35 -58 50 -17 14 -86 71 -155 125 -69 55 -127
103 -130 106 -3 3 -49 42 -104 85 -62 50 -119 107 -155 154 -158 210 -283 371
-291 376 -6 3 -10 -2 -11 -12z"/>
<path d="M1770 3317 c0 -8 10 -13 23 -13 21 1 22 -3 27 -116 3 -81 8 -115 16
-110 6 4 11 54 11 130 l0 122 -38 0 c-26 0 -39 -5 -39 -13z"/>
<path d="M3050 3320 c-13 -8 -13 -11 2 -27 14 -13 20 -15 30 -5 17 17 -11 45
-32 32z"/>
<path d="M4235 3314 c11 -8 25 -12 32 -10 9 4 12 -21 12 -105 -1 -69 3 -115
10 -122 14 -14 13 -22 16 126 l2 127 -46 0 c-43 -1 -45 -2 -26 -16z"/>
<path d="M3853 3312 c-7 -4 -11 -16 -9 -27 2 -13 -4 -22 -16 -25 -19 -5 -26
-25 -9 -25 19 0 24 -16 25 -74 2 -65 17 -91 50 -91 30 0 73 40 55 50 -7 5 -19
0 -29 -13 -15 -18 -20 -19 -34 -8 -12 10 -16 31 -16 76 0 61 0 62 28 61 39 -1
44 18 5 22 -27 3 -32 8 -35 32 -2 20 -7 27 -15 22z"/>
<path d="M1583 3253 c-23 -9 -14 -25 11 -19 14 3 32 3 40 0 22 -9 21 -44 -1
-42 -41 3 -55 -4 -68 -34 -11 -29 -11 -36 3 -60 17 -29 64 -39 78 -17 5 8 9 8
14 -1 16 -25 26 0 23 57 -3 71 -11 105 -26 115 -13 9 -55 9 -74 1z m70 -103
c7 -26 -23 -63 -45 -55 -20 8 -28 37 -16 59 13 23 54 21 61 -4z"/>
<path d="M1950 3233 c0 -25 6 -55 25 -140 9 -38 32 -26 45 24 l14 46 13 -39
c15 -41 29 -61 38 -52 12 12 42 179 34 184 -17 10 -26 -6 -33 -56 -8 -58 -18
-64 -31 -17 -13 43 -27 38 -45 -15 l-15 -43 -9 68 c-6 45 -14 67 -23 67 -8 0
-13 -11 -13 -27z"/>
<path d="M2197 3253 c-15 -15 -5 -25 19 -19 28 7 54 -8 54 -31 0 -10 -6 -13
-16 -9 -26 10 -61 -4 -73 -30 -26 -57 -2 -88 69 -90 l51 -1 -4 78 c-2 43 -10
85 -17 94 -12 15 -71 21 -83 8z m73 -107 c0 -26 -10 -41 -31 -48 -34 -13 -52
37 -24 65 20 21 55 10 55 -17z"/>
<path d="M2380 3253 c0 -4 12 -38 26 -76 25 -65 26 -94 5 -127 -8 -12 -13 -12
-29 4 -23 20 -41 4 -22 -19 19 -22 58 -18 74 8 25 38 89 208 81 215 -10 10
-34 -26 -47 -70 -6 -21 -15 -38 -19 -38 -4 0 -16 25 -25 55 -10 30 -24 55 -31
55 -7 0 -13 -3 -13 -7z"/>
<path d="M2606 3244 c-23 -23 -19 -51 9 -69 14 -8 36 -22 50 -30 47 -29 4 -63
-47 -38 -15 7 -29 9 -32 4 -9 -13 18 -31 56 -37 25 -5 38 -1 51 14 29 31 18
64 -28 88 -62 32 -56 79 7 55 30 -11 43 -4 27 16 -16 18 -74 17 -93 -3z"/>
<path d="M3003 3248 c2 -7 14 -12 26 -11 19 3 21 -2 22 -50 2 -92 4 -107 14
-110 6 -1 11 35 13 91 l3 92 -41 0 c-29 0 -40 -4 -37 -12z"/>
<path d="M3200 3168 c5 -95 24 -126 26 -44 2 64 12 94 35 107 32 17 40 0 42
-82 1 -42 6 -74 12 -74 14 0 18 140 5 165 -13 24 -47 26 -78 4 -20 -14 -22
-14 -22 0 0 9 -6 16 -12 16 -10 0 -12 -22 -8 -92z"/>
<path d="M3627 3239 c-21 -30 -10 -54 34 -75 45 -22 56 -41 35 -62 -12 -13
-18 -12 -47 2 -39 19 -39 19 -39 2 0 -19 54 -40 85 -32 13 3 29 15 35 26 15
28 -2 56 -50 80 -44 22 -48 31 -25 50 12 10 21 10 40 2 17 -8 26 -8 31 -1 20
32 -77 40 -99 8z"/>
<path d="M4020 3251 c0 -11 26 -83 42 -118 11 -22 6 -56 -11 -83 -8 -12 -13
-12 -29 4 -23 20 -41 4 -22 -19 19 -22 57 -18 74 8 21 32 88 208 82 215 -11
11 -34 -20 -46 -63 -7 -25 -16 -45 -20 -45 -4 0 -16 23 -26 52 -17 46 -44 76
-44 49z"/>
<path d="M4450 3240 c-22 -22 -21 -19 -25 -78 -4 -74 49 -109 121 -82 18 7 24
14 17 21 -6 6 -19 6 -36 0 -32 -12 -54 -6 -67 20 -18 33 -12 41 33 39 71 -3
77 -1 77 21 0 23 -18 60 -34 71 -21 14 -66 8 -86 -12z m74 -16 c28 -28 19 -41
-29 -42 -49 -1 -53 3 -29 36 18 26 37 28 58 6z"/>
<path d="M894 2846 c-209 -52 -332 -290 -284 -547 22 -117 114 -255 200 -299
106 -54 286 -56 366 -5 20 13 27 9 86 -39 l65 -54 28 36 28 35 -52 46 -53 46
35 53 c57 83 79 154 83 262 3 110 -7 171 -46 255 -47 104 -126 176 -225 207
-51 16 -177 18 -231 4z m197 -97 c88 -27 162 -123 187 -244 13 -66 5 -199 -17
-257 -22 -56 -55 -108 -70 -108 -5 0 -24 14 -42 30 -59 53 -65 54 -99 18 l-31
-32 48 -42 48 -42 -45 -9 c-207 -43 -355 103 -354 347 0 170 69 292 190 335
48 17 134 19 185 4z"/>
<path d="M4969 2851 c-46 -9 -117 -46 -151 -79 -70 -65 -82 -206 -26 -285 33
-46 135 -89 298 -123 148 -32 209 -88 195 -180 -12 -84 -85 -127 -215 -127
-127 0 -224 73 -232 172 -2 30 -3 31 -55 31 -52 0 -53 -1 -53 -30 0 -44 29
-120 60 -161 88 -111 309 -146 462 -74 107 51 142 104 143 215 0 153 -58 205
-290 260 -185 44 -235 75 -235 148 0 94 59 137 185 137 120 0 140 -15 205
-155 8 -17 99 -22 101 -5 3 23 -7 74 -20 109 -46 118 -203 180 -372 147z"/>
<path d="M1559 2788 c-3 -288 1 -561 11 -601 14 -63 41 -115 77 -148 122 -114
386 -111 499 6 74 77 78 96 82 468 l3 327 -55 0 c-31 0 -56 -3 -57 -7 0 -5 -1
-145 -3 -313 -1 -286 -3 -308 -22 -350 -40 -85 -106 -120 -216 -114 -99 6
-169 55 -193 138 -12 39 -15 114 -15 348 l0 298 -55 0 -55 0 -1 -52z"/>
<path d="M2433 2410 c0 -388 1 -430 16 -431 9 0 139 -1 289 -2 211 -2 272 1
273 11 1 16 1 70 0 80 -1 4 -104 7 -231 6 -153 0 -230 3 -233 10 -3 10 -1 259
2 279 0 4 98 7 216 7 l215 0 0 50 0 50 -217 2 -218 3 0 130 0 130 233 3 232 2
0 50 0 50 -289 0 -288 0 0 -430z"/>
<path d="M3171 2790 l-1 -50 235 0 234 0 -1 -135 0 -135 -216 -2 -217 -3 -1
-47 -1 -48 218 0 219 0 -3 -147 -2 -148 -220 -1 c-121 -1 -226 -2 -232 -3 -8
-1 -13 -17 -13 -46 0 -36 4 -45 18 -46 9 0 140 -1 290 -2 l272 -2 0 433 0 432
-289 0 -288 0 -2 -50z"/>
<path d="M3905 2408 l0 -432 23 1 c12 0 35 1 52 2 l30 1 2 343 3 342 95 -152
c365 -585 327 -535 410 -535 54 0 50 -32 50 433 l0 430 -52 -3 -53 -3 0 -342
c0 -189 -2 -343 -5 -343 -4 1 -178 274 -245 386 -11 18 -58 94 -105 169 l-85
135 -60 0 -60 0 0 -432z"/>
<path d="M4309 1843 c-1 -74 -9 -427 -12 -558 l-3 -100 -30 3 c-16 2 -65 15
-108 30 l-79 27 -126 -32 c-187 -47 -226 -62 -446 -175 -87 -45 -408 -175
-535 -217 -52 -17 -124 -36 -159 -41 -35 -5 -67 -13 -70 -18 -66 -99 -126
-182 -131 -182 -5 0 -165 74 -465 215 -38 18 -101 47 -140 65 -38 18 -117 55
-174 81 -118 55 -80 56 -341 -7 -80 -20 -154 -38 -165 -40 -11 -2 -83 -19
-160 -37 -77 -19 -141 -33 -143 -32 -1 1 2 42 7 91 6 49 13 116 16 149 22 233
27 270 39 281 9 9 220 58 346 81 14 2 66 13 115 23 50 11 101 21 115 24 14 2
135 28 270 56 269 56 274 57 310 65 14 3 36 7 50 10 14 3 36 7 50 10 14 3 36
8 50 11 14 3 36 7 50 10 14 2 57 12 95 20 39 9 108 18 155 20 92 5 224 35 280
65 61 31 126 79 110 80 -8 1 -24 2 -35 3 -11 1 -43 -10 -70 -25 -74 -39 -187
-67 -296 -73 -53 -3 -102 -8 -110 -11 -8 -2 -93 -21 -189 -41 -96 -19 -184
-38 -195 -40 -11 -2 -32 -6 -47 -9 -16 -3 -56 -12 -90 -20 -35 -8 -184 -39
-333 -69 -148 -30 -313 -64 -365 -75 -52 -11 -106 -22 -120 -25 -28 -5 -194
-40 -197 -41 -4 -1 -12 -61 -18 -135 -4 -41 -8 -88 -11 -105 -2 -16 -6 -57 -9
-90 -3 -33 -8 -71 -10 -85 -2 -14 -7 -61 -11 -105 -3 -44 -8 -88 -10 -97 -1
-10 1 -18 5 -18 9 0 171 38 391 92 69 16 136 32 150 34 14 3 67 15 119 28 l93
23 202 -94 c110 -52 228 -107 261 -123 33 -16 89 -42 125 -58 36 -17 118 -55
184 -86 65 -31 124 -56 130 -56 6 0 43 46 82 103 l71 102 51 7 c107 16 505
164 697 260 44 22 106 54 139 70 82 41 205 83 317 108 l96 21 77 -26 c92 -31
175 -43 185 -27 3 6 8 102 10 214 2 112 4 264 6 338 2 116 0 140 -17 173 -10
20 -21 37 -23 37 -3 0 -5 -26 -6 -57z"/>
</g>
</svg>
